<svg id="Warstwa_1" data-name="Warstwa 1" xmlns="http://www.w3.org/2000/svg" viewBox="0 0 477.3 475.9"><defs><style>.cls-1{fill:#fdebdf;}.cls-2{fill:none;}.cls-2,.cls-3{stroke:#000;stroke-width:9px;}.cls-2,.cls-3,.cls-4{stroke-miterlimit:10;}.cls-3{fill:#e1e1de;}.cls-4{stroke:#363738;}</style></defs><g id="Warstwa_2" data-name="Warstwa 2"><path d="M173.6,291.1a141.33,141.33,0,0,1,.7-14.6H95.8c-.5,5.2-.5,9.9-.5,15.1a132.88,132.88,0,0,0,.5,14.1h78.6A141.29,141.29,0,0,1,173.6,291.1Z" transform="translate(-95.3 -53.6)"/><path d="M178.7,330.1l-74,27a236.39,236.39,0,0,0,10.8,30.6l74.7-27.5A155.94,155.94,0,0,1,178.7,330.1Z" transform="translate(-95.3 -53.6)"/><path d="M239.2,415.9,198,488a185.6,185.6,0,0,0,33.5,19.3l42-73.8A142.57,142.57,0,0,1,239.2,415.9Z" transform="translate(-95.3 -53.6)"/><path d="M201.5,378.7,140,430.6a264.25,264.25,0,0,0,22.6,27.3L225.1,405A155.19,155.19,0,0,1,201.5,378.7Z" transform="translate(-95.3 -53.6)"/><path d="M325.2,442.7a152.72,152.72,0,0,1-38.5-4.9L272,522.4a202.3,202.3,0,0,0,41.5,7.1l15.1-86.9C327.5,442.7,326.3,442.7,325.2,442.7Z" transform="translate(-95.3 -53.6)"/><path d="M338.7,442.1l15.2,87.4a274.18,274.18,0,0,0,43.3-7.5l-15.7-90.1A151.37,151.37,0,0,1,338.7,442.1Z" transform="translate(-95.3 -53.6)"/><path d="M572.6,290.2c0-10.8-.9-21.2-1.9-31.6H473.3A151.94,151.94,0,0,1,429.7,401l71.8,60.7A254.42,254.42,0,0,0,534,422.1l-68.3-57.5,83.4,30.6A259.91,259.91,0,0,0,567,344.3l-73.5-26.9h77.7A267.59,267.59,0,0,0,572.6,290.2Z" transform="translate(-95.3 -53.6)"/><path d="M387.3,429.4l45.8,79.4A217.08,217.08,0,0,0,475,484.3l-46.9-81.9A150.08,150.08,0,0,1,387.3,429.4Z" transform="translate(-95.3 -53.6)"/><path d="M189,224.5l-74.9-27.6c-3.3,8-6.1,16-9,24.5l74.5,27.2A158.6,158.6,0,0,1,189,224.5Z" transform="translate(-95.3 -53.6)"/><path d="M220.6,181.1l-62.1-52.5c-5.2,5.7-9.9,11.3-14.6,17.4l61.2,51.7A143.05,143.05,0,0,1,220.6,181.1Z" transform="translate(-95.3 -53.6)"/><path d="M265.8,152.7,223.5,78.6A110.92,110.92,0,0,0,207,88.5l41.4,72.7A139.93,139.93,0,0,1,265.8,152.7Z" transform="translate(-95.3 -53.6)"/><path d="M315.7,141.5,300.3,53.6c-5.7.9-10.8,1.9-16,2.8l15.2,86.7C304.8,142.3,310.2,141.8,315.7,141.5Z" transform="translate(-95.3 -53.6)"/><path d="M366.6,147.5,382.7,56c-4.7-.9-9.4-1.9-14.1-2.4l-15.9,90.5C357.4,145,362.1,146.2,366.6,147.5Z" transform="translate(-95.3 -53.6)"/><path d="M411.9,169.8l47.6-82.7c-3.8-2.4-7.5-4.7-11.8-7.1l-47.2,82.3Q406.35,165.75,411.9,169.8Z" transform="translate(-95.3 -53.6)"/><path d="M447.2,205.2l74.1-62.6a81.31,81.31,0,0,0-7.5-9L440,196C442.5,199,444.9,202.1,447.2,205.2Z" transform="translate(-95.3 -53.6)"/><path class="cls-1" d="M328.6,290.2" transform="translate(-95.3 -53.6)"/></g><g id="layer"><path class="cls-1" d="M329.13,291.69" transform="translate(-95.3 -53.6)"/><path class="cls-2" d="M323.43,194.69c.06,117.88-.06,203.59,0,213.3a19.81,19.81,0,0,1-2.83,11,19,19,0,0,1-8.56,7.05c-7.66,3-20.4,1.25-24.83-8.72-3.51-7.9-.47-17.95,7.62-23.15" transform="translate(-95.3 -53.6)"/><path class="cls-1" d="M306.13,198.19c-6,29.9-11.9,59.8-17.9,89.7" transform="translate(-95.3 -53.6)"/><path class="cls-2" d="M288.83,188.19c-1.1-4.9-5.2-8.7-9.8-10.5s-9.8-1.8-14.7-1.1c-4.6.7-9.2,2.2-12.5,5.4a16.22,16.22,0,0,0-3.5,5.4,25.17,25.17,0,0,0,3.9,25.9" transform="translate(-95.3 -53.6)"/><path class="cls-2" d="M267.43,256.39c-5.5-9.5-16.7-13.9-27.4-16.2a137,137,0,0,0-29.3-3.2c-3.2,0-6.5.2-9.4,1.7-3.4,1.9-5.6,5.5-7.1,9.1-2.2,5.2-3.4,11-2.2,16.6.7,3.4,2.4,6.6,4,9.7,2.9,5.5,6,11.4,11.5,14.4A24.6,24.6,0,0,0,216,291a52.27,52.27,0,0,0,15.8-.3" transform="translate(-95.3 -53.6)"/><path class="cls-2" d="M224.93,263.09c3.7,8.8,7.2,17.7,9.2,27.1s2.4,19.1,0,28.4" transform="translate(-95.3 -53.6)"/><path class="cls-2" d="M246.13,199.59a87.64,87.64,0,0,0-21.7-.6,19.81,19.81,0,0,0-6.9,1.5,18.62,18.62,0,0,0-6.6,5.2c-5.8,6.6-9.2,15.7-7.5,24.3a17.46,17.46,0,0,0,3.3,7.5" transform="translate(-95.3 -53.6)"/><path class="cls-2" d="M321.29,347.7q1.36,1.05,2.64,2.19" transform="translate(-95.3 -53.6)"/><path class="cls-2" d="M205.43,286.09c-5.9-.5-14.9-2.5-16.9,4.5-5,13,1,25,10,35a30.48,30.48,0,0,0,16,8c16,5,31,9,47,7,14-2,28-8,42.14-2.24" transform="translate(-95.3 -53.6)"/><path class="cls-2" d="M255.43,340.89c6.3,2.9,12.4,6,18.3,9.4a59.27,59.27,0,0,1,11.6,8.2,23.55,23.55,0,0,1,7,12.2" transform="translate(-95.3 -53.6)"/><path class="cls-2" d="M286.83,413.39c-8.5,1.3-18.1,2.4-25-2.8a31.45,31.45,0,0,1-6-6.6c-2.5-3.4-5-6.9-6.1-10.9-.9-3.1-.8-6.4-.8-9.6,0-3.8.5-8.5,4-10.1a25.42,25.42,0,0,0,7.4-5.2" transform="translate(-95.3 -53.6)"/><path class="cls-2" d="M207.54,334.52c-8.24,8.17-2.24,21.17,5.76,26.17,8,4,16,1,24.23-2.71" transform="translate(-95.3 -53.6)"/><path class="cls-3" d="M249.06,393.19s-.07-.17-.13-.32l-.58-.08a7.19,7.19,0,0,1-1.48-.41c-6.68.3-12.44-2.77-17.5-7-3-2.51-4.37-5.44-6-8.9-1.46-3.09-3.77-5.7-5.09-8.81a5.54,5.54,0,0,1-.45-2l-.18-.15c1.4,7.5,3.4,15.7,9.5,20.3,2.9,2.2,6.5,3.2,9.7,4.8a43.88,43.88,0,0,0,6.6,3.1,9.73,9.73,0,0,0,5.85.08A5.77,5.77,0,0,1,249.06,393.19Z" transform="translate(-95.3 -53.6)"/><path class="cls-4" d="M473,308.09a132.17,132.17,0,0,0,.6-15.5v-1.1l-37.7-12.3a99.8,99.8,0,0,0-6.6-23.2l25.5-30.5a128.15,128.15,0,0,0-9.3-13.8l-38,12.2a101.53,101.53,0,0,0-19-14.9l2.7-39.6a138.08,138.08,0,0,0-15.6-5.7l-23.4,32.1a100.19,100.19,0,0,0-15.5-1.2v21a80.6,80.6,0,0,1,0,161.2v18.6h1.8c2.3,0,4.6-.2,6.8-.4l21.1,33.7a132.94,132.94,0,0,0,15.9-4.6l.1-39.7a104.77,104.77,0,0,0,20-13.5l36.8,14.8a117.86,117.86,0,0,0,10.2-13.1l-23.3-32.1a102.53,102.53,0,0,0,8.3-22.7Z" transform="translate(-95.3 -53.6)"/><path class="cls-1" d="M331.43,169.69" transform="translate(-95.3 -53.6)"/><path class="cls-2" d="M323.43,196.29c-.3-17.7-6.7-31.4-13.8-32.5-8.9-1.4-21.9,16.7-24.3,35-3.5,26.6,17.6,37.8,15,61.8-1.1,10-6.5,24.8-29.3,41.4" transform="translate(-95.3 -53.6)"/><polygon points="236.85 202.03 236.85 214.33 249 214.33 249 280.13 261.8 280.13 261.8 214.33 283.5 214.33 283.5 202.03 236.85 202.03"/><path d="M368.4,330.73a15.47,15.47,0,0,1-6.3-6.6,21.63,21.63,0,0,1-2.2-10.2v-14a21.91,21.91,0,0,1,2.2-10.2,15.47,15.47,0,0,1,6.3-6.6,19.6,19.6,0,0,1,9.7-2.3,17.27,17.27,0,0,1,8.3,2,16.12,16.12,0,0,1,6.2,5.7,22.19,22.19,0,0,1,3.4,8.8h-8.6a12.16,12.16,0,0,0-2-4.3,8.85,8.85,0,0,0-3.3-2.8,8.3,8.3,0,0,0-4.1-1,8.73,8.73,0,0,0-8.3,5,12.61,12.61,0,0,0-1.2,5.7v14a12.61,12.61,0,0,0,1.2,5.7,8.53,8.53,0,0,0,3.3,3.7,9.1,9.1,0,0,0,5,1.3,9.46,9.46,0,0,0,4.1-.9,9.7,9.7,0,0,0,3.3-2.8,11.87,11.87,0,0,0,2-4.4H396a23.8,23.8,0,0,1-3.4,8.8,16.85,16.85,0,0,1-6.2,5.7,17.85,17.85,0,0,1-8.3,2A20.15,20.15,0,0,1,368.4,330.73Z" transform="translate(-95.3 -53.6)"/></g><path class="cls-2" d="M265.1,253.05A19.64,19.64,0,0,1,269,266.14" transform="translate(-95.3 -53.6)"/><path class="cls-2" d="M293.85,278.53c-2.92,19.35,1.53,28.37,7.08,38.14" transform="translate(-95.3 -53.6)"/><path class="cls-2" d="M325.1,402.18" transform="translate(-95.3 -53.6)"/><path class="cls-2" d="M326,393.18" transform="translate(-95.3 -53.6)"/></svg>