<svg xmlns="http://www.w3.org/2000/svg" viewBox="0 0 477.3 475.89"><defs><style>.cls-1{fill:#fdebdf;}.cls-2{fill:#9b78b0;}.cls-2,.cls-3,.cls-4{stroke:#000;stroke-width:9px;}.cls-2,.cls-3,.cls-4,.cls-5{stroke-miterlimit:10;}.cls-3{fill:none;}.cls-4{fill:#e1e1de;}.cls-5{stroke:#363738;}</style></defs><g id="Warstwa_2" data-name="Warstwa 2"><path d="M173.63,291.1q0-7.39.7-14.61H95.76c-.47,5.18-.47,9.9-.47,15.08,0,4.71,0,9.42.47,14.13h78.57C173.87,300.9,173.63,296,173.63,291.1Z" transform="translate(-95.29 -53.62)"/><path d="M178.7,330.06l-74,27a237.09,237.09,0,0,0,10.84,30.63l74.73-27.46A149.86,149.86,0,0,1,178.7,330.06Z" transform="translate(-95.29 -53.62)"/><path d="M239.18,415.91,198,488.05a182.11,182.11,0,0,0,33.46,19.32l42-73.77A151.1,151.1,0,0,1,239.18,415.91Z" transform="translate(-95.29 -53.62)"/><path d="M201.49,378.7l-61.44,51.86a257.66,257.66,0,0,0,22.61,27.33L225.15,405A152.54,152.54,0,0,1,201.49,378.7Z" transform="translate(-95.29 -53.62)"/><path d="M325.22,442.69a151.69,151.69,0,0,1-38.49-4.94L272,522.44a200.57,200.57,0,0,0,41.46,7.07l15.12-86.87C327.45,442.67,326.34,442.69,325.22,442.69Z" transform="translate(-95.29 -53.62)"/><path d="M338.74,442.08,354,529.51A268.72,268.72,0,0,0,397.31,522l-15.74-90.11A150.88,150.88,0,0,1,338.74,442.08Z" transform="translate(-95.29 -53.62)"/><path d="M572.59,290.15c0-10.83-1-21.2-1.89-31.56H473.3A151.71,151.71,0,0,1,429.66,401l71.78,60.7A258.86,258.86,0,0,0,534,422.08L465.63,364.6,549,395.23a260.27,260.27,0,0,0,17.9-50.89l-73.5-26.86h77.74A256.56,256.56,0,0,0,572.59,290.15Z" transform="translate(-95.29 -53.62)"/><path d="M387.32,429.42l45.8,79.36a217.5,217.5,0,0,0,41.93-24.5l-46.92-81.89A151.62,151.62,0,0,1,387.32,429.42Z" transform="translate(-95.29 -53.62)"/><path d="M189,224.46l-74.91-27.6c-3.29,8-6.12,16-8.95,24.5l74.51,27.19A150.8,150.8,0,0,1,189,224.46Z" transform="translate(-95.29 -53.62)"/><path d="M220.55,181.07l-62.13-52.53c-5.18,5.66-9.89,11.31-14.6,17.43l61.23,51.74A152.54,152.54,0,0,1,220.55,181.07Z" transform="translate(-95.29 -53.62)"/><path d="M265.77,152.66,223.45,78.6A117,117,0,0,0,207,88.49l41.42,72.68A150.59,150.59,0,0,1,265.77,152.66Z" transform="translate(-95.29 -53.62)"/><path d="M315.67,141.48,300.25,53.62c-5.66,1-10.84,1.89-16,2.83l15.22,86.74A151.76,151.76,0,0,1,315.67,141.48Z" transform="translate(-95.29 -53.62)"/><path d="M366.64,147.53,382.7,56c-4.71-.94-9.42-1.88-14.13-2.36l-15.88,90.49C357.42,145,362.07,146.18,366.64,147.53Z" transform="translate(-95.29 -53.62)"/><path d="M411.9,169.75l47.6-82.67c-3.76-2.36-7.53-4.71-11.77-7.07l-47.21,82.3Q406.39,165.79,411.9,169.75Z" transform="translate(-95.29 -53.62)"/><path d="M447.17,205.24l74.06-62.56a69.15,69.15,0,0,0-7.54-9L440,196Q443.77,200.46,447.17,205.24Z" transform="translate(-95.29 -53.62)"/><path class="cls-1" d="M328.59,290.21" transform="translate(-95.29 -53.62)"/></g><g id="layer"><path class="cls-1" d="M328.56,291.1" transform="translate(-95.29 -53.62)"/><line class="cls-2" x1="227.62" y1="140.52" x2="227.62" y2="360.24"/><path class="cls-1" d="M305.64,197.64q-8.94,44.84-17.87,89.67" transform="translate(-95.29 -53.62)"/><path class="cls-3" d="M294.29,393.62c-7.64,1.87-8.23,11.32-8.19,17.69,0,7.45,2.62,13.13,10.17,15.4,10.09,3,34.57-6.64,26.35-20.34" transform="translate(-95.29 -53.62)"/><path class="cls-3" d="M288.33,187.62c-1.11-4.86-5.15-8.7-9.79-10.52s-9.82-1.83-14.74-1.07c-4.56.71-9.22,2.17-12.45,5.45a17.64,17.64,0,0,0-3.52,5.38,25.13,25.13,0,0,0,3.86,25.87" transform="translate(-95.29 -53.62)"/><path class="cls-3" d="M266.88,255.77c-5.5-9.46-16.74-13.86-27.42-16.24a132.24,132.24,0,0,0-29.28-3.17c-3.2,0-6.54.18-9.35,1.7-3.45,1.86-5.58,5.48-7.08,9.1-2.17,5.22-3.39,11-2.19,16.57a39.67,39.67,0,0,0,4,9.72c2.86,5.52,6,11.36,11.48,14.35a24,24,0,0,0,8.48,2.49,51.69,51.69,0,0,0,15.85-.31" transform="translate(-95.29 -53.62)"/><path class="cls-3" d="M224.42,262.51c3.69,8.79,7.18,17.73,9.16,27.06s2.4,19.12,0,28.35" transform="translate(-95.29 -53.62)"/><path class="cls-3" d="M245.63,199a89.29,89.29,0,0,0-21.67-.63,22.49,22.49,0,0,0-6.94,1.49,19.25,19.25,0,0,0-6.62,5.25c-5.76,6.62-9.18,15.69-7.46,24.3a17.24,17.24,0,0,0,3.34,7.49" transform="translate(-95.29 -53.62)"/><path class="cls-3" d="M204.89,285.55c-5.65-1.17-12.51-1.8-16.22,2.61-2.07,2.47-2.51,5.92-2.46,9.14a39.44,39.44,0,0,0,23.48,34.86c5.67,2.4,11.81,3.4,17.88,4.39l13.82,2.25c9,1.46,18.37,2.88,26.95-.1,2.36-.82,4.6-2,7-2.66a29.72,29.72,0,0,1,7.51-1.05,59.43,59.43,0,0,1,40.65,14.5" transform="translate(-95.29 -53.62)"/><path class="cls-3" d="M288.9,310.91A70.47,70.47,0,0,0,299.19,332c1.8,2.51,3.85,5,6.59,6.41l.39-1.49" transform="translate(-95.29 -53.62)"/><path class="cls-3" d="M254.94,339.33c6.25,2.85,12.38,6,18.34,9.43A57.46,57.46,0,0,1,284.89,357a23.29,23.29,0,0,1,7,12.16" transform="translate(-95.29 -53.62)"/><path class="cls-3" d="M286.33,412.78c-8.54,1.31-18.13,2.38-25-2.82a31,31,0,0,1-6-6.55c-2.49-3.36-5-6.86-6.08-10.89a35.31,35.31,0,0,1-.83-9.63c0-3.83.53-8.47,4-10.07a26.28,26.28,0,0,0,7.4-5.2" transform="translate(-95.29 -53.62)"/><path class="cls-3" d="M210.62,335.2a5.59,5.59,0,0,0-5.54,2.61,11.22,11.22,0,0,0-1.56,6.23,23.52,23.52,0,0,0,8.79,18.22,12,12,0,0,0,2.53,1.59,11.41,11.41,0,0,0,4.37.8,20.33,20.33,0,0,0,9.46-2.23c2.58-1.33,5.31-1.55,8-2.67" transform="translate(-95.29 -53.62)"/><path class="cls-4" d="M250,392.64a8.7,8.7,0,0,1-7.09.45,49.37,49.37,0,0,1-6.65-3.08c-3.24-1.56-6.77-2.65-9.66-4.8-6.14-4.58-8.06-12.79-9.46-20.32" transform="translate(-95.29 -53.62)"/><path class="cls-5" d="M472.46,307.51a138.85,138.85,0,0,0,.62-15.46c0-.39,0-.76-.05-1.15l-37.72-12.33a99.7,99.7,0,0,0-6.65-23.22l25.45-30.46a137,137,0,0,0-9.28-13.77L407,223.32a100.48,100.48,0,0,0-19-14.87l2.69-39.62a136.59,136.59,0,0,0-15.58-5.71l-23.43,32.11a102.15,102.15,0,0,0-15.54-1.2v21a80.6,80.6,0,0,1,0,161.19v18.61c.58,0,1.17,0,1.75,0,2.3,0,4.57-.18,6.83-.37l21.13,33.67a137.11,137.11,0,0,0,15.95-4.6l.08-39.69a100.89,100.89,0,0,0,20-13.52l36.85,14.8A137.84,137.84,0,0,0,449,372l-23.25-32.14a100.11,100.11,0,0,0,8.27-22.7Z" transform="translate(-95.29 -53.62)"/><path class="cls-1" d="M330.9,169.06" transform="translate(-95.29 -53.62)"/><path class="cls-3" d="M322.91,195.71c-.28-17.67-6.69-31.38-13.83-32.51-8.88-1.41-21.91,16.71-24.29,35-3.46,26.58,17.55,37.85,15,61.81-1.05,10-6.46,24.78-29.29,41.44" transform="translate(-95.29 -53.62)"/><path d="M329.54,257h56.18v12.3H329.54Zm21.7,6.39H364v71.71H351.24Z" transform="translate(-95.29 -53.62)"/><path d="M375.33,332.1a15.46,15.46,0,0,1-6.29-6.59,22.1,22.1,0,0,1-2.2-10.16v-14a22.1,22.1,0,0,1,2.2-10.16,15.62,15.62,0,0,1,6.29-6.61,19.37,19.37,0,0,1,9.66-2.32,17.64,17.64,0,0,1,8.34,2,16.83,16.83,0,0,1,6.23,5.68,23,23,0,0,1,3.39,8.77H394.3a12.3,12.3,0,0,0-2-4.31,9.69,9.69,0,0,0-3.25-2.83,8.72,8.72,0,0,0-4.06-1,9.39,9.39,0,0,0-5.05,1.32,8.77,8.77,0,0,0-3.29,3.74,13.23,13.23,0,0,0-1.16,5.73v14a13.23,13.23,0,0,0,1.16,5.73,8.63,8.63,0,0,0,3.29,3.73,9.56,9.56,0,0,0,5.05,1.3,9,9,0,0,0,4.09-.95,9.23,9.23,0,0,0,3.25-2.78,11.54,11.54,0,0,0,2-4.39H403a23.34,23.34,0,0,1-3.43,8.77,16.89,16.89,0,0,1-6.22,5.68,17.63,17.63,0,0,1-8.31,2A19.37,19.37,0,0,1,375.33,332.1Z" transform="translate(-95.29 -53.62)"/></g></svg>